<?xml version="1.0" encoding="UTF-8" standalone="no"?>
<!-- Created with Inkscape (http://www.inkscape.org/) -->

<!-- viewBox fix by in[k]firmary (http://inkfirmary.48design.de) -->
<svg
   xmlns:svg="http://www.w3.org/2000/svg"
   xmlns="http://www.w3.org/2000/svg"
   version="1.1"
   width="100%"
   height="100%"
   id="svg2"
   viewBox="0 0 300 326">
  <defs
     id="defs4" />
  <g
     transform="translate(0,-726.36218)"
     id="layer1">
    <path
       d="m 280.55554,136.55556 a 132.77777,132.77777 0 1 1 -265.55554,0 132.77777,132.77777 0 1 1 265.55554,0 z"
       transform="translate(0,726.36218)"
       id="path3604"
       style="fill:none;stroke:#000000;stroke-width:1;stroke-miterlimit:4;stroke-opacity:1;stroke-dasharray:none;stroke-dashoffset:0" />
    <path
       d="m 41.111111,216 212.777779,0 C 235.60583,239.67129 205.65207,267.41051 147.77778,269.33333 96.689134,267.95159 65.70208,245.35151 41.111111,216 z"
       transform="translate(0,726.36218)"
       id="path3606"
       style="fill:none;stroke:#000000;stroke-width:3;stroke-linecap:butt;stroke-linejoin:miter;stroke-miterlimit:4;stroke-opacity:1;stroke-dasharray:none" />
    <path
       d="m 147.77778,3.2222222 0,265.5555578 80.55555,-26.11111 L 147.77778,3.2222222 z"
       transform="translate(0,726.36218)"
       id="path3610"
       style="fill:none;stroke:#000000;stroke-width:1px;stroke-linecap:butt;stroke-linejoin:miter;stroke-opacity:1" />
    <path
       d="m 134.44444,136 27.77778,0"
       transform="translate(0,726.36218)"
       id="path3612"
       style="fill:none;stroke:#000000;stroke-width:1px;stroke-linecap:butt;stroke-linejoin:miter;stroke-opacity:1" />
    <path
       d="m 147.77778,242.66667 79.44444,0"
       transform="translate(0,726.36218)"
       id="path3614"
       style="fill:none;stroke:#000000;stroke-width:1px;stroke-linecap:butt;stroke-linejoin:miter;stroke-opacity:1" />
    <path
       d="m 15.555556,268.77778 265.000004,0"
       transform="translate(0,726.36218)"
       id="path3616"
       style="fill:none;stroke:#000000;stroke-width:1px;stroke-linecap:butt;stroke-linejoin:miter;stroke-opacity:1" />
    <path
       d="m 227.22222,268.22222 0,-26.11111"
       transform="translate(0,726.36218)"
       id="path3618"
       style="fill:none;stroke:#000000;stroke-width:1px;stroke-linecap:butt;stroke-linejoin:miter;stroke-opacity:1" />
    <path
       d="M 42.222223,995.13996 16.111112,1021.8067"
       id="path3620"
       style="fill:none;stroke:#000000;stroke-width:1px;stroke-linecap:butt;stroke-linejoin:miter;stroke-opacity:1" />
    <path
       d="M 68.944444,995.13995 42.833333,1021.8066"
       id="path3620-1"
       style="fill:none;stroke:#000000;stroke-width:1px;stroke-linecap:butt;stroke-linejoin:miter;stroke-opacity:1" />
    <path
       d="m 95.749999,994.8622 -26.111111,26.6667"
       id="path3620-7"
       style="fill:none;stroke:#000000;stroke-width:1px;stroke-linecap:butt;stroke-linejoin:miter;stroke-opacity:1" />
    <path
       d="M 122.13888,994.86219 96.027777,1021.5288"
       id="path3620-1-4"
       style="fill:none;stroke:#000000;stroke-width:1px;stroke-linecap:butt;stroke-linejoin:miter;stroke-opacity:1" />
    <path
       d="m 148.04167,995.61214 -26.11111,26.66666"
       id="path3620-0"
       style="fill:none;stroke:#000000;stroke-width:1px;stroke-linecap:butt;stroke-linejoin:miter;stroke-opacity:1" />
    <path
       d="m 174.76388,995.61214 -26.11111,26.66656"
       id="path3620-1-9"
       style="fill:none;stroke:#000000;stroke-width:1px;stroke-linecap:butt;stroke-linejoin:miter;stroke-opacity:1" />
    <path
       d="M 201.56944,995.33444 175.45833,1022.001"
       id="path3620-7-4"
       style="fill:none;stroke:#000000;stroke-width:1px;stroke-linecap:butt;stroke-linejoin:miter;stroke-opacity:1" />
    <path
       d="m 227.95832,995.33444 -26.1111,26.66646"
       id="path3620-1-4-8"
       style="fill:none;stroke:#000000;stroke-width:1px;stroke-linecap:butt;stroke-linejoin:miter;stroke-opacity:1" />
    <path
       d="m 254.86114,994.80666 -26.11111,26.66664"
       id="path3620-7-4-8"
       style="fill:none;stroke:#000000;stroke-width:1px;stroke-linecap:butt;stroke-linejoin:miter;stroke-opacity:1" />
    <path
       d="m 281.25002,994.80666 -26.1111,26.66654"
       id="path3620-1-4-8-2"
       style="fill:none;stroke:#000000;stroke-width:1px;stroke-linecap:butt;stroke-linejoin:miter;stroke-opacity:1" />
    <g
       id="text3725"
       style="font-size:20.5774498px;font-style:normal;font-weight:normal;fill:#000000;fill-opacity:1;stroke:none;font-family:Bitstream Vera Sans">
      <path
         d="m 177.36413,1039.6669 0,-1.7282 6.23955,-0.01 0,5.4659 c -0.95788,0.7636 -1.94589,1.338 -2.96404,1.7232 -1.01816,0.3851 -2.06311,0.5777 -3.13484,0.5777 -1.44686,0 -2.76142,-0.3098 -3.94368,-0.9294 -1.18227,-0.6196 -2.07483,-1.5155 -2.67768,-2.6877 -0.60286,-1.1722 -0.90428,-2.4818 -0.90428,-3.9286 0,-1.4335 0.29975,-2.7715 0.89926,-4.014 0.5995,-1.2426 1.46192,-2.1653 2.58725,-2.7681 1.12532,-0.6029 2.42146,-0.9043 3.88841,-0.9043 1.06504,0 2.02793,0.1725 2.88868,0.5174 0.86074,0.345 1.5356,0.8256 2.02459,1.4418 0.48897,0.6163 0.86073,1.4201 1.11528,2.4115 l -1.75832,0.4823 c -0.22106,-0.7503 -0.4957,-1.3397 -0.8239,-1.7684 -0.32824,-0.4287 -0.79712,-0.772 -1.40667,-1.0299 -0.60956,-0.2579 -1.2861,-0.3868 -2.02961,-0.3868 -0.89089,0 -1.66121,0.1356 -2.31094,0.4069 -0.64975,0.2713 -1.1739,0.628 -1.57245,1.0701 -0.39856,0.4421 -0.70836,0.9277 -0.9294,1.4569 -0.37511,0.911 -0.56267,1.899 -0.56266,2.964 -10e-6,1.3129 0.22606,2.4114 0.67821,3.2956 0.45213,0.8842 1.11025,1.5406 1.97435,1.9693 0.86408,0.4287 1.78176,0.6431 2.75303,0.6431 0.84399,0 1.66789,-0.1625 2.47171,-0.4873 0.8038,-0.3249 1.41335,-0.6715 1.82866,-1.04 l 0,-2.7429 z"
         id="path3852" />
      <path
         d="m 186.19596,1045.4442 0,-14.7297 1.80856,0 0,14.7297 z"
         id="path3854" />
      <path
         d="m 197.78082,1044.128 c -0.66985,0.5693 -1.31457,0.9712 -1.93416,1.2057 -0.61961,0.2344 -1.28442,0.3517 -1.99444,0.3517 -1.17223,0 -2.07316,-0.2864 -2.7028,-0.8591 -0.62965,-0.5727 -0.94448,-1.3045 -0.94448,-2.1954 0,-0.5225 0.1189,-0.9997 0.35669,-1.4318 0.23779,-0.432 0.54927,-0.7787 0.93443,-1.0399 0.38515,-0.2612 0.81887,-0.4588 1.30116,-0.5928 0.35501,-0.094 0.89088,-0.1842 1.60761,-0.2713 1.46025,-0.1742 2.53534,-0.3818 3.22528,-0.623 0.007,-0.2478 0.01,-0.4052 0.01,-0.4722 0,-0.7368 -0.17081,-1.2559 -0.51242,-1.5574 -0.4622,-0.4086 -1.14878,-0.6129 -2.05976,-0.6129 -0.8507,0 -1.47867,0.1491 -1.88392,0.4471 -0.40525,0.2981 -0.70501,0.8256 -0.89926,1.5825 l -1.76837,-0.2411 c 0.16076,-0.7569 0.42534,-1.3681 0.79376,-1.8337 0.36841,-0.4655 0.90093,-0.8239 1.59756,-1.0751 0.69663,-0.2512 1.50379,-0.3768 2.42147,-0.3768 0.91097,0 1.65115,0.1072 2.22052,0.3216 0.56935,0.2143 0.988,0.4839 1.25594,0.8088 0.26793,0.3249 0.45548,0.7351 0.56267,1.2308 0.0603,0.3082 0.0904,0.8641 0.0904,1.6679 l 0,2.4114 c -1e-5,1.6813 0.0385,2.7447 0.11554,3.1901 0.077,0.4455 0.22941,0.8725 0.45717,1.2811 l -1.88895,0 c -0.18756,-0.3751 -0.30813,-0.8138 -0.36171,-1.3162 z m -0.15071,-4.0391 c -0.65645,0.2679 -1.64111,0.4956 -2.95399,0.6832 -0.74353,0.1072 -1.26935,0.2277 -1.57747,0.3617 -0.30813,0.134 -0.54592,0.3299 -0.71338,0.5878 -0.16746,0.2579 -0.25119,0.5442 -0.25119,0.8591 0,0.4822 0.18253,0.8841 0.54759,1.2057 0.36506,0.3215 0.89926,0.4822 1.60259,0.4822 0.69663,0 1.31623,-0.1523 1.8588,-0.4571 0.54257,-0.3048 0.94112,-0.7218 1.19567,-1.2509 0.19424,-0.4086 0.29137,-1.0115 0.29138,-1.8086 z"
         id="path3856" />
      <path
         d="m 201.54867,1042.2591 1.78847,-0.2813 c 0.10047,0.7167 0.38013,1.266 0.83897,1.6478 0.45884,0.3818 1.10021,0.5727 1.92411,0.5727 0.8306,0 1.44685,-0.1691 1.84876,-0.5074 0.40189,-0.3383 0.60284,-0.7351 0.60285,-1.1906 -1e-5,-0.4086 -0.17751,-0.7301 -0.53252,-0.9646 -0.24785,-0.1608 -0.8641,-0.3651 -1.84876,-0.6129 -1.32628,-0.3349 -2.24563,-0.6246 -2.75806,-0.8691 -0.51243,-0.2445 -0.90093,-0.5828 -1.16552,-1.0148 -0.26458,-0.4321 -0.39688,-0.9093 -0.39688,-1.4318 0,-0.4756 0.10885,-0.916 0.32655,-1.3213 0.2177,-0.4052 0.5141,-0.7418 0.88921,-1.0097 0.28133,-0.2077 0.66481,-0.3835 1.15045,-0.5275 0.48563,-0.144 1.00643,-0.2161 1.5624,-0.2161 0.83729,0 1.57244,0.1206 2.20544,0.3618 0.63299,0.2411 1.10021,0.5677 1.40164,0.9796 0.30142,0.412 0.50907,0.9629 0.62295,1.6528 l -1.76837,0.2412 c -0.0804,-0.5493 -0.31316,-0.978 -0.69831,-1.2861 -0.38516,-0.3081 -0.92941,-0.4622 -1.63273,-0.4622 -0.83061,0 -1.42341,0.1373 -1.77842,0.4119 -0.35502,0.2747 -0.53253,0.5962 -0.53253,0.9646 0,0.2345 0.0737,0.4455 0.22105,0.633 0.14736,0.1943 0.37846,0.355 0.69328,0.4823 0.18086,0.067 0.71338,0.221 1.59757,0.4622 1.27938,0.3416 2.17194,0.6213 2.67768,0.8389 0.50572,0.2177 0.9026,0.5342 1.19064,0.9495 0.28802,0.4153 0.43203,0.9311 0.43204,1.5474 -1e-5,0.6028 -0.17584,1.1705 -0.52749,1.703 -0.35168,0.5326 -0.85908,0.9445 -1.52221,1.2359 -0.66315,0.2914 -1.41337,0.4371 -2.25066,0.4371 -1.38657,0 -2.44324,-0.2881 -3.17001,-0.8641 -0.72678,-0.5761 -1.19064,-1.4301 -1.39159,-2.5622 z"
         id="path3858" />
      <path
         d="m 212.56082,1049.5336 0,-14.7599 1.6478,0 0,1.3865 c 0.3885,-0.5425 0.82725,-0.9494 1.31623,-1.2207 0.48898,-0.2713 1.08179,-0.407 1.77842,-0.407 0.91098,0 1.71478,0.2345 2.41142,0.7034 0.69663,0.4689 1.22245,1.1303 1.57747,1.9844 0.35501,0.854 0.53252,1.7901 0.53253,2.8083 -1e-5,1.0918 -0.19594,2.0748 -0.58779,2.9489 -0.39186,0.8742 -0.96122,1.544 -1.70809,2.0095 -0.74687,0.4656 -1.53226,0.6984 -2.35615,0.6984 -0.60286,0 -1.14376,-0.1273 -1.62269,-0.3819 -0.47894,-0.2545 -0.87247,-0.576 -1.18059,-0.9645 l 0,5.1946 z m 1.63775,-9.3644 c 0,1.3732 0.27798,2.388 0.83395,3.0445 0.55596,0.6564 1.22915,0.9846 2.01956,0.9846 0.8038,0 1.49206,-0.3399 2.06478,-1.0198 0.57271,-0.6799 0.85906,-1.7332 0.85907,-3.16 -1e-5,-1.3597 -0.27966,-2.3779 -0.83897,-3.0544 -0.55932,-0.6766 -1.22749,-1.0148 -2.00449,-1.0149 -0.77032,10e-5 -1.45188,0.3601 -2.04469,1.0802 -0.59281,0.72 -0.88921,1.7667 -0.88921,3.1398 z"
         id="path3860" />
      <path
         d="m 223.97487,1045.4442 0,-14.7297 1.80857,0 0,14.7297 z"
         id="path3862" />
      <path
         d="m 235.55973,1044.128 c -0.66984,0.5693 -1.31456,0.9712 -1.93416,1.2057 -0.6196,0.2344 -1.28442,0.3517 -1.99444,0.3517 -1.17222,0 -2.07316,-0.2864 -2.7028,-0.8591 -0.62965,-0.5727 -0.94448,-1.3045 -0.94448,-2.1954 0,-0.5225 0.1189,-0.9997 0.35669,-1.4318 0.2378,-0.432 0.54927,-0.7787 0.93443,-1.0399 0.38515,-0.2612 0.81887,-0.4588 1.30116,-0.5928 0.35501,-0.094 0.89088,-0.1842 1.60761,-0.2713 1.46025,-0.1742 2.53534,-0.3818 3.22528,-0.623 0.007,-0.2478 0.01,-0.4052 0.0101,-0.4722 -1e-5,-0.7368 -0.17082,-1.2559 -0.51243,-1.5574 -0.4622,-0.4086 -1.14878,-0.6129 -2.05976,-0.6129 -0.8507,0 -1.47867,0.1491 -1.88392,0.4471 -0.40525,0.2981 -0.70501,0.8256 -0.89926,1.5825 l -1.76837,-0.2411 c 0.16076,-0.7569 0.42535,-1.3681 0.79376,-1.8337 0.36841,-0.4655 0.90093,-0.8239 1.59756,-1.0751 0.69663,-0.2512 1.50379,-0.3768 2.42147,-0.3768 0.91098,0 1.65115,0.1072 2.22052,0.3216 0.56935,0.2143 0.988,0.4839 1.25595,0.8088 0.26792,0.3249 0.45548,0.7351 0.56266,1.2308 0.0603,0.3082 0.0904,0.8641 0.0904,1.6679 l 0,2.4114 c -1e-5,1.6813 0.0385,2.7447 0.11555,3.1901 0.077,0.4455 0.22941,0.8725 0.45716,1.2811 l -1.88894,0 c -0.18757,-0.3751 -0.30814,-0.8138 -0.36172,-1.3162 z m -0.15071,-4.0391 c -0.65645,0.2679 -1.64111,0.4956 -2.95399,0.6832 -0.74353,0.1072 -1.26935,0.2277 -1.57747,0.3617 -0.30813,0.134 -0.54592,0.3299 -0.71338,0.5878 -0.16746,0.2579 -0.25119,0.5442 -0.25119,0.8591 0,0.4822 0.18253,0.8841 0.54759,1.2057 0.36506,0.3215 0.89926,0.4822 1.60259,0.4822 0.69663,0 1.31623,-0.1523 1.85881,-0.4571 0.54256,-0.3048 0.94111,-0.7218 1.19566,-1.2509 0.19424,-0.4086 0.29137,-1.0115 0.29138,-1.8086 z"
         id="path3864" />
      <path
         d="m 243.9997,1043.8266 0.26124,1.5975 c -0.50908,0.1072 -0.96457,0.1608 -1.36647,0.1608 -0.65645,0 -1.16552,-0.1038 -1.52723,-0.3115 -0.36172,-0.2076 -0.61626,-0.4806 -0.76362,-0.8189 -0.14737,-0.3382 -0.22105,-1.0499 -0.22105,-2.1351 l 0,-6.1391 -1.32628,0 0,-1.4066 1.32628,0 0,-2.6425 1.79852,-1.0852 0,3.7277 1.81861,0 0,1.4066 -1.81861,0 0,6.2396 c 0,0.5158 0.0318,0.8473 0.0954,0.9947 0.0636,0.1474 0.16746,0.2646 0.31148,0.3517 0.14401,0.087 0.34999,0.1306 0.61792,0.1306 0.20095,0 0.46554,-0.024 0.79376,-0.07 z"
         id="path3866" />
      <path
         d="m 249.70673,1043.8266 0.26123,1.5975 c -0.50908,0.1072 -0.96457,0.1608 -1.36647,0.1608 -0.65644,0 -1.16552,-0.1038 -1.52723,-0.3115 -0.36171,-0.2076 -0.61625,-0.4806 -0.76362,-0.8189 -0.14736,-0.3382 -0.22104,-1.0499 -0.22104,-2.1351 l 0,-6.1391 -1.32628,0 0,-1.4066 1.32628,0 0,-2.6425 1.79851,-1.0852 0,3.7277 1.81862,0 0,1.4066 -1.81862,0 0,6.2396 c 0,0.5158 0.0318,0.8473 0.0955,0.9947 0.0636,0.1474 0.16745,0.2646 0.31147,0.3517 0.14401,0.087 0.34999,0.1306 0.61793,0.1306 0.20095,0 0.46553,-0.024 0.79376,-0.07 z"
         id="path3868" />
      <path
         d="m 258.76965,1042.0079 1.86885,0.2311 c -0.29474,1.0919 -0.84066,1.9392 -1.63775,2.5421 -0.79712,0.6028 -1.81527,0.9043 -3.05447,0.9043 -1.56073,0 -2.79825,-0.4807 -3.71258,-1.4419 -0.91433,-0.9612 -1.3715,-2.3092 -1.3715,-4.0441 0,-1.7952 0.46219,-3.1884 1.38657,-4.1798 0.92437,-0.9914 2.12339,-1.4871 3.59703,-1.4871 1.42675,0 2.59227,0.4857 3.49656,1.4569 0.90428,0.9713 1.35642,2.3378 1.35643,4.0995 -10e-6,0.1071 -0.003,0.2679 -0.01,0.4822 l -7.95769,0 c 0.067,1.1723 0.39856,2.0698 0.99471,2.6928 0.59616,0.6229 1.33968,0.9344 2.23057,0.9344 0.66313,0 1.22915,-0.1741 1.69804,-0.5225 0.46888,-0.3483 0.84064,-0.9042 1.11528,-1.6679 z m -5.93812,-2.9238 5.95822,0 c -0.0804,-0.8976 -0.30814,-1.5708 -0.68324,-2.0196 -0.57607,-0.6966 -1.32294,-1.0449 -2.24061,-1.0449 -0.83061,0 -1.52891,0.278 -2.09492,0.8339 -0.56602,0.556 -0.87917,1.2995 -0.93945,2.2306 z"
         id="path3870" />
    </g>
    <g
       id="text3725-4"
       style="font-size:20.5774498px;font-style:normal;font-weight:normal;fill:#000000;fill-opacity:1;stroke:none;font-family:Bitstream Vera Sans">
      <path
         d="m 8.7188031,976.80798 0,-14.72975 1.9492309,0 0,12.99152 7.254355,0 0,1.73823 z"
         id="path3879" />
      <path
         d="m 20.032382,964.15808 0,-2.07985 1.808564,0 0,2.07985 z m 0,12.6499 0,-10.67053 1.808564,0 0,10.67053 z"
         id="path3881" />
      <path
         d="m 24.604031,976.80798 0,-10.67053 1.627709,0 0,1.51719 c 0.783708,-1.17221 1.915734,-1.75832 3.396083,-1.75833 0.643038,10e-6 1.23417,0.11556 1.773398,0.34664 0.539212,0.2311 0.942789,0.53421 1.210734,0.90931 0.267926,0.37512 0.455481,0.82056 0.562665,1.33632 0.06697,0.33493 0.100465,0.92104 0.100475,1.75833 l 0,6.56107 -1.808564,0 0,-6.49074 c -9e-6,-0.73681 -0.07034,-1.28775 -0.211,-1.65282 -0.140674,-0.36506 -0.390188,-0.65644 -0.748545,-0.87414 -0.35837,-0.21769 -0.778694,-0.32654 -1.260971,-0.32655 -0.77032,10e-6 -1.435135,0.2445 -1.994446,0.73347 -0.559318,0.489 -0.838976,1.41672 -0.838973,2.78319 l 0,5.82759 z"
         id="path3883" />
      <path
         d="m 35.33485,973.6229 1.78847,-0.28133 c 0.100473,0.71673 0.380131,1.26599 0.838973,1.6478 0.458836,0.38181 1.100206,0.57271 1.924112,0.57271 0.830594,0 1.446845,-0.16913 1.848755,-0.5074 0.401896,-0.33827 0.602848,-0.73515 0.602855,-1.19064 -7e-6,-0.4086 -0.177514,-0.73012 -0.532522,-0.96457 -0.247847,-0.16075 -0.864098,-0.36505 -1.848755,-0.6129 -1.326285,-0.33491 -2.245638,-0.62462 -2.758061,-0.86911 -0.512429,-0.24449 -0.900935,-0.58276 -1.16552,-1.01481 -0.264587,-0.43204 -0.39688,-0.9093 -0.396879,-1.43178 -10e-7,-0.47558 0.108847,-0.916 0.326546,-1.32126 0.217696,-0.40524 0.5141,-0.74184 0.889211,-1.00978 0.28133,-0.20764 0.664812,-0.38347 1.150448,-0.5275 0.48563,-0.144 1.006429,-0.21601 1.562399,-0.21602 0.837293,10e-6 1.572441,0.12058 2.205445,0.36171 0.63299,0.24115 1.100202,0.5677 1.401638,0.97964 0.301418,0.41196 0.509068,0.9629 0.62295,1.65283 l -1.768375,0.24114 c -0.08039,-0.54926 -0.313156,-0.97796 -0.698307,-1.28609 -0.385163,-0.30812 -0.929407,-0.46218 -1.632732,-0.46219 -0.830604,1e-5 -1.423411,0.13733 -1.778422,0.41195 -0.355018,0.27464 -0.532525,0.59617 -0.532522,0.96457 -3e-6,0.23445 0.07368,0.44545 0.221047,0.633 0.147361,0.19426 0.378455,0.35502 0.693283,0.48228 0.180853,0.067 0.713374,0.22105 1.597566,0.46219 1.279385,0.34162 2.171945,0.62128 2.677681,0.83897 0.505719,0.21771 0.902599,0.5342 1.190638,0.9495 0.288021,0.4153 0.432037,0.93108 0.432046,1.54733 -9e-6,0.60286 -0.175842,1.17054 -0.527498,1.70306 -0.351674,0.53253 -0.859076,0.94448 -1.522209,1.23586 -0.663147,0.29138 -1.413366,0.43707 -2.250658,0.43707 -1.386571,0 -2.44324,-0.28804 -3.170013,-0.8641 -0.726776,-0.57606 -1.190639,-1.4301 -1.39159,-2.56213 z"
         id="path3885" />
      <path
         d="m 53.651594,973.37171 1.86885,0.23109 c -0.294739,1.09184 -0.840657,1.93919 -1.637756,2.54204 -0.797116,0.60286 -1.81527,0.90429 -3.054465,0.90429 -1.560729,0 -2.798255,-0.48061 -3.712582,-1.44183 -0.914331,-0.96122 -1.371496,-2.30927 -1.371495,-4.04415 -10e-7,-1.79517 0.462188,-3.18843 1.386566,-4.1798 0.924375,-0.99135 2.123385,-1.48703 3.597035,-1.48704 1.42675,10e-6 2.592268,0.48564 3.496559,1.4569 0.904272,0.97127 1.356413,2.33774 1.356424,4.09941 -1.1e-5,0.10718 -0.0034,0.26794 -0.01005,0.48229 l -7.957686,0 c 0.06698,1.17222 0.398551,2.0698 0.994711,2.69275 0.596152,0.62295 1.339673,0.93442 2.230563,0.93442 0.663134,0 1.229148,-0.17415 1.698042,-0.52247 0.468879,-0.34832 0.840639,-0.90428 1.115282,-1.6679 z m -5.938122,-2.92385 5.958217,0 c -0.08039,-0.89757 -0.308134,-1.57076 -0.683236,-2.01956 -0.576069,-0.69662 -1.322938,-1.04494 -2.240611,-1.04495 -0.830605,1e-5 -1.528911,0.27799 -2.094921,0.83395 -0.566017,0.55597 -0.879166,1.29949 -0.939449,2.23056 z"
         id="path3887" />
    </g>
    <g
       id="text3725-1"
       style="font-size:21.52257156px;font-style:italic;font-variant:normal;font-weight:normal;font-stretch:normal;text-align:start;line-height:100%;writing-mode:lr-tb;text-anchor:start;fill:#000000;fill-opacity:1;stroke:none;font-family:DejaVu Serif;-inkscape-font-specification:DejaVu Serif Italic">
      <path
         d="m 136.08141,820.48744 c 0.46239,0.13312 0.84072,0.35907 1.13498,0.67783 0.29425,0.31879 0.52545,0.76542 0.6936,1.33991 l 1.36618,4.65552 1.91265,0 -0.21018,1.11396 -3.69919,0 -1.48178,-4.99181 c -0.28025,-0.96683 -0.58852,-1.59212 -0.9248,-1.87587 -0.3363,-0.28374 -0.84774,-0.42561 -1.53432,-0.42562 l -2.34352,0 -1.20855,6.17934 2.21742,0 -0.21019,1.11396 -6.34747,0 0.21018,-1.11396 1.99672,0 2.61676,-13.45161 -1.99672,0 0.22069,-1.12447 7.95536,0 c 1.52731,2e-5 2.63601,0.36433 3.32612,1.09294 0.69008,0.72865 0.90552,1.76204 0.64631,3.10018 -0.2102,1.07894 -0.6796,1.92842 -1.40822,2.54845 -0.72864,0.62004 -1.70598,1.00712 -2.93203,1.16125 z m -4.86569,-0.63055 3.10017,0 c 1.0579,10e-6 1.88637,-0.25045 2.4854,-0.75139 0.599,-0.50093 1.00185,-1.27685 1.20854,-2.32776 0.20666,-1.0509 0.10508,-1.82506 -0.30476,-2.32251 -0.40987,-0.49741 -1.14375,-0.74613 -2.20165,-0.74614 l -3.10018,0 z"
         id="path3896" />
    </g>
    <g
       id="text3725-1-1"
       style="font-size:21.52257156px;font-style:italic;font-variant:normal;font-weight:normal;font-stretch:normal;text-align:start;line-height:100%;writing-mode:lr-tb;text-anchor:start;fill:#000000;fill-opacity:1;stroke:none;font-family:DejaVu Serif;-inkscape-font-specification:DejaVu Serif Italic">
      <path
         d="m 110.5287,869.40717 0.21018,-1.11397 1.99672,0 2.61676,-13.4516 -2.11232,0 0.22069,-1.12447 4.57144,0 3.33138,11.17114 7.68212,-11.17114 4.2877,0 -0.22069,1.12447 -2.0913,0 -2.60625,13.4516 1.99672,0 -0.21018,1.11397 -6.13729,0 0.21018,-1.11397 1.99672,0 2.36454,-12.12746 -7.51398,10.93994 -1.48178,0 -3.2473,-10.93994 -2.36454,12.12746 1.99672,0 -0.21018,1.11397 z"
         id="path3893" />
    </g>
    <g
       id="text3725-1-2"
       style="font-size:21.52257156px;font-style:italic;font-variant:normal;font-weight:normal;font-stretch:normal;text-align:start;line-height:100%;writing-mode:lr-tb;text-anchor:start;fill:#000000;fill-opacity:1;stroke:none;font-family:DejaVu Serif;-inkscape-font-specification:DejaVu Serif Italic">
      <path
         d="m 135.76389,916.41999 c 0.46238,0.13313 0.84071,0.35907 1.13498,0.67784 0.29424,0.31878 0.52544,0.76542 0.69359,1.33991 l 1.36618,4.65551 1.91265,0 -0.21018,1.11396 -3.69919,0 -1.48178,-4.9918 c -0.28025,-0.96683 -0.58852,-1.59212 -0.9248,-1.87587 -0.3363,-0.28374 -0.84774,-0.42561 -1.53432,-0.42562 l -2.34352,0 -1.20855,6.17933 2.21742,0 -0.21018,1.11396 -6.34748,0 0.21018,-1.11396 1.99672,0 2.61676,-13.4516 -1.99672,0 0.22069,-1.12447 7.95536,0 c 1.52731,10e-6 2.63602,0.36433 3.32612,1.09294 0.69008,0.72864 0.90552,1.76203 0.64631,3.10017 -0.21019,1.07895 -0.6796,1.92843 -1.40821,2.54845 -0.72864,0.62005 -1.70599,1.00713 -2.93203,1.16125 z m -4.8657,-0.63054 3.10017,0 c 1.05791,10e-6 1.88637,-0.25046 2.4854,-0.7514 0.599,-0.50092 1.00185,-1.27684 1.20854,-2.32776 0.20667,-1.05089 0.10508,-1.82506 -0.30476,-2.3225 -0.40987,-0.49742 -1.14375,-0.74613 -2.20165,-0.74614 l -3.10018,0 z"
         id="path3890" />
    </g>
    <g
       id="text3725-1-14"
       style="font-size:21.52257156px;font-style:italic;font-variant:normal;font-weight:normal;font-stretch:normal;text-align:start;line-height:100%;writing-mode:lr-tb;text-anchor:start;fill:#000000;fill-opacity:1;stroke:none;font-family:DejaVu Serif;-inkscape-font-specification:DejaVu Serif Italic">
      <path
         d="m 188.20429,955.21507 -0.54648,2.79541 -1.11396,0 c 0.021,-0.14011 0.0315,-0.26972 0.0315,-0.38883 -10e-6,-0.36431 -0.0841,-0.64805 -0.25222,-0.85124 -0.21719,-0.27322 -0.58851,-0.40984 -1.11396,-0.40985 -0.95283,1e-5 -1.74801,0.32929 -2.38556,0.98785 -0.63755,0.65858 -1.07543,1.60439 -1.31363,2.83745 l -1.20854,6.22137 -1.93367,0 1.95468,-10.06769 -1.84959,0 0.21018,-1.10345 3.78326,0 -0.37832,1.98621 c 0.52545,-0.77766 1.12271,-1.35391 1.79179,-1.72874 0.66907,-0.37481 1.43098,-0.56222 2.28573,-0.56224 0.31526,2e-5 0.64104,0.0245 0.97734,0.0736 0.33628,0.049 0.69008,0.11911 1.06142,0.21018 z"
         id="path3876" />
    </g>
    <g
       id="text3725-1-22"
       style="font-size:21.52257156px;font-style:italic;font-variant:normal;font-weight:normal;font-stretch:normal;text-align:start;line-height:100%;writing-mode:lr-tb;text-anchor:start;fill:#000000;fill-opacity:1;stroke:none;font-family:DejaVu Serif;-inkscape-font-specification:DejaVu Serif Italic">
      <path
         d="m 244.37013,973.85504 -3.17374,16.35211 -1.93367,0 0.33629,-1.7445 c -0.51845,0.7006 -1.10171,1.2173 -1.74976,1.55009 -0.64806,0.33278 -1.40296,0.49918 -2.2647,0.49918 -1.37319,0 -2.38907,-0.54297 -3.04763,-1.62891 -0.44138,-0.72162 -0.66207,-1.58687 -0.66207,-2.59574 0,-0.51844 0.0596,-1.07542 0.17865,-1.67094 0.3433,-1.7515 1.05441,-3.17023 2.13334,-4.25617 1.07893,-1.08593 2.30849,-1.6289 3.68868,-1.62891 0.86174,10e-6 1.55183,0.16641 2.07029,0.49918 0.51844,0.3328 0.90027,0.84949 1.14549,1.55009 l 1.12447,-5.81152 -1.82858,0 0.22069,-1.11396 z m -4.13007,11.31827 0.21019,-1.10345 c 0.10508,-0.54647 0.15762,-1.04039 0.15763,-1.48178 -1e-5,-0.63754 -0.1121,-1.1665 -0.33629,-1.58687 -0.37133,-0.7076 -1.04741,-1.06141 -2.02825,-1.06142 -0.99486,10e-6 -1.82333,0.39235 -2.48539,1.17702 -0.66208,0.78468 -1.14374,1.95119 -1.445,3.49952 -0.14012,0.70761 -0.21018,1.33465 -0.21018,1.88112 0,0.65157 0.0981,1.19103 0.29425,1.6184 0.3503,0.79168 1.02288,1.18752 2.01774,1.18752 0.98084,0 1.79705,-0.35205 2.44862,-1.05616 0.65155,-0.7041 1.11045,-1.72874 1.37668,-3.0739 z"
         id="path3873" />
    </g>
    <path
       d="m 210,248.4 c -2.31161,-10.16367 2.17914,-17.70821 13.8,-18.8"
       transform="translate(0,726.36218)"
       id="path3823"
       style="fill:none;stroke:#000000;stroke-width:1px;stroke-linecap:butt;stroke-linejoin:miter;stroke-opacity:1" />
    <path
       d="m 147.6,225 c 9.83968,0.28738 17.27472,3.55194 16,17.6"
       transform="translate(0,726.36218)"
       id="path3825"
       style="fill:none;stroke:#000000;stroke-width:1px;stroke-linecap:butt;stroke-linejoin:miter;stroke-opacity:1" />
    <path
       d="m 154.99999,234.2 a 0.60000002,0.60000002 0 1 1 -1.2,0 0.60000002,0.60000002 0 1 1 1.2,0 z"
       transform="matrix(2.6666666,0,0,2.6666666,-257.33331,336.02887)"
       id="path3827"
       style="fill:#000000;fill-opacity:1;stroke:none" />
    <path
       d="m 154.99999,234.2 a 0.60000002,0.60000002 0 1 1 -1.2,0 0.60000002,0.60000002 0 1 1 1.2,0 z"
       transform="matrix(2.6666666,0,0,2.6666666,-194.13331,342.62887)"
       id="path3827-8"
       style="fill:#000000;fill-opacity:1;stroke:none" />
  </g>
</svg>
